<?xml version="1.0" standalone="no"?>
<!DOCTYPE svg PUBLIC "-//W3C//DTD SVG 20010904//EN"
 "http://www.w3.org/TR/2001/REC-SVG-20010904/DTD/svg10.dtd">
<svg version="1.0" xmlns="http://www.w3.org/2000/svg"
 width="557.000000pt" height="695.000000pt" viewBox="0 0 557.000000 695.000000"
 preserveAspectRatio="xMidYMid meet">

<g transform="translate(0.000000,695.000000) scale(0.100000,-0.100000)"
fill="#000000" stroke="none">
<path d="M4618 6364 c-4 -3 -132 -6 -286 -7 -285 -2 -312 -6 -312 -42 0 -21
36 -25 275 -31 127 -3 239 -7 251 -9 34 -7 42 -43 43 -190 2 -273 15 -376 51
-395 57 -30 135 6 145 68 4 20 11 51 16 67 4 17 13 124 18 239 11 251 7 274
-54 292 -42 13 -138 18 -147 8z"/>
<path d="M722 6315 c-18 -8 -40 -29 -50 -46 -9 -18 -29 -46 -43 -63 -37 -44
-53 -79 -78 -173 -21 -78 -31 -186 -19 -199 4 -3 24 -8 46 -11 40 -5 41 -5 52
36 12 46 133 212 200 275 61 58 92 102 88 128 -2 17 -17 27 -68 45 -76 26 -84
27 -128 8z"/>
<path d="M1742 6280 c-32 -13 -37 -35 -15 -64 21 -29 54 -46 88 -46 23 0 25
-4 26 -52 1 -29 3 -79 4 -111 l1 -58 -40 6 c-23 3 -58 7 -79 10 -21 2 -42 7
-47 10 -18 11 -48 -5 -54 -30 -9 -34 2 -53 32 -59 15 -3 64 -13 110 -22 l82
-17 0 -98 0 -98 -63 -36 c-51 -28 -75 -35 -118 -35 -102 0 -116 -15 -83 -86
11 -23 27 -37 51 -45 44 -14 133 -4 193 23 25 11 74 22 110 25 36 3 81 12 100
21 19 9 73 18 120 20 89 5 110 13 110 43 0 48 -62 80 -184 95 l-58 7 6 96 c3
53 9 167 12 253 l7 158 -39 38 c-29 29 -52 42 -92 51 -62 13 -148 13 -180 1z"/>
<path d="M3920 6171 c-42 -12 -70 -65 -72 -140 -2 -95 0 -116 23 -211 30 -120
52 -160 88 -160 16 0 33 6 39 13 9 11 22 216 26 397 l1 75 -35 17 c-39 19 -36
19 -70 9z"/>
<path d="M1046 6112 c-12 -24 -12 -31 2 -58 10 -17 27 -44 40 -60 40 -51 90
-131 107 -170 23 -54 41 -72 86 -79 29 -5 47 -2 64 9 37 25 40 57 11 112 -14
27 -26 54 -26 60 0 6 -24 38 -52 70 -29 33 -62 72 -73 87 -20 28 -81 56 -122
57 -15 0 -27 -10 -37 -28z"/>
<path d="M4110 6001 c-42 -36 -44 -40 -32 -62 11 -21 9 -44 -13 -154 -31 -151
-29 -264 6 -445 32 -157 43 -166 179 -136 154 35 224 63 234 93 3 10 8 72 11
138 4 87 14 153 36 240 35 136 37 248 5 319 l-18 39 -138 -6 c-87 -4 -141 -3
-145 3 -3 6 -23 10 -43 10 -29 0 -47 -9 -82 -39z m218 -60 c11 -7 11 -16 -2
-55 -9 -26 -16 -76 -16 -112 l0 -65 -57 6 c-87 10 -93 13 -93 44 0 25 40 157
55 181 7 12 95 13 113 1z m-61 -317 c41 -16 46 -38 41 -165 -4 -99 -4 -102
-36 -130 -18 -16 -43 -29 -57 -29 -22 0 -25 5 -25 33 0 18 -7 57 -16 86 -15
52 -26 193 -17 217 5 14 60 9 110 -12z"/>
<path d="M3385 5974 c-33 -14 -90 -35 -126 -47 -88 -27 -101 -48 -99 -160 1
-45 2 -215 1 -377 -1 -162 1 -411 4 -554 3 -171 2 -272 -6 -299 -14 -54 10
-90 66 -97 33 -4 40 -9 47 -36 15 -58 103 -114 180 -114 34 0 47 7 83 43 77
77 77 77 71 244 -3 81 -8 321 -12 533 -6 381 -12 449 -41 482 -18 20 -65 32
-92 23 -27 -8 -32 -25 -45 -145 -10 -94 -13 -105 -32 -108 -11 -2 -32 7 -47
18 -25 20 -27 26 -27 104 0 46 3 138 7 205 6 120 7 123 32 133 14 6 51 21 81
33 30 13 76 31 102 40 47 16 65 44 52 78 -13 36 -117 36 -199 1z m-1 -733 c19
-21 33 -177 18 -199 -5 -8 -28 -16 -51 -19 l-41 -6 0 116 c0 112 1 116 23 120
12 2 25 5 28 6 3 0 14 -7 23 -18z m-4 -338 c37 -25 40 -33 39 -98 -1 -33 4
-107 11 -165 9 -83 9 -120 -1 -177 -7 -40 -16 -73 -19 -73 -18 0 -53 68 -60
118 -4 31 -13 70 -19 85 -6 16 -12 91 -13 169 -1 111 2 142 13 149 19 12 21
12 49 -8z"/>
<path d="M942 5701 c-29 -17 -75 -37 -101 -46 -54 -18 -61 -28 -61 -86 0 -75
81 -118 126 -68 36 40 91 61 140 53 38 -5 50 -2 84 20 22 14 45 26 53 26 28 0
58 32 55 58 -5 45 -67 72 -163 72 -70 0 -87 -4 -133 -29z"/>
<path d="M955 5481 c-3 -6 -7 -54 -9 -108 -2 -54 -7 -105 -10 -114 -4 -9 -30
-21 -64 -29 -135 -30 -241 -59 -260 -71 -44 -28 -37 -73 15 -94 59 -25 104
-17 145 26 18 18 64 34 130 45 36 6 37 6 44 -31 3 -20 4 -67 1 -103 -3 -37 -1
-109 4 -162 5 -52 10 -174 11 -271 l2 -175 -29 -50 c-17 -27 -32 -54 -35 -59
-3 -6 -22 -36 -43 -67 -44 -65 -43 -89 3 -113 30 -16 77 -19 104 -9 9 3 33 35
52 71 20 36 44 67 53 70 33 12 51 36 51 70 0 22 11 50 29 76 95 139 161 249
161 271 0 20 -8 27 -49 41 -47 15 -51 15 -78 -2 -15 -10 -33 -25 -40 -33 -6
-8 -14 -12 -17 -9 -8 8 -18 496 -11 520 4 13 16 19 35 19 15 0 41 7 56 15 16
8 39 15 52 15 35 0 92 27 92 44 0 21 -132 58 -165 46 -11 -4 -36 -10 -56 -14
l-36 -6 -6 57 c-9 81 -24 118 -53 132 -30 13 -71 14 -79 2z"/>
<path d="M1848 5393 c-27 -30 -40 -109 -40 -250 -1 -73 -2 -133 -3 -133 -2 0
-32 18 -67 39 -36 22 -85 45 -109 52 -24 7 -59 24 -78 36 -47 32 -105 31 -127
-2 -25 -38 -12 -70 36 -89 21 -8 47 -27 55 -40 9 -14 33 -31 53 -37 37 -13
186 -15 222 -4 18 6 19 2 14 -42 -3 -26 0 -147 7 -268 6 -121 11 -263 10 -315
-1 -84 -4 -97 -25 -120 -13 -14 -32 -38 -42 -54 -18 -28 -18 -29 5 -47 13 -11
33 -19 45 -19 32 0 89 39 141 98 l48 53 -11 67 c-8 50 -8 99 2 192 7 79 11
261 10 493 -1 416 3 396 -81 404 -38 4 -52 1 -65 -14z"/>
<path d="M2167 5390 c-32 -25 -132 -229 -119 -242 5 -5 25 -11 45 -15 31 -5
40 -1 65 23 16 16 54 48 85 71 31 24 68 59 83 78 l27 36 -30 31 c-42 42 -115
50 -156 18z"/>
<path d="M4176 5088 c-20 -28 -20 -58 0 -147 l16 -71 38 0 c41 0 38 -5 73 106
24 74 22 91 -15 114 -45 27 -93 26 -112 -2z"/>
<path d="M1174 5029 c-20 -25 -34 -81 -34 -131 0 -43 3 -50 26 -58 47 -18 68
-12 102 32 37 48 43 103 14 138 -21 26 -93 39 -108 19z"/>
<path d="M2110 4823 c-22 -8 -40 -34 -40 -56 0 -20 5 -26 93 -122 30 -33 56
-69 58 -80 5 -22 73 -65 106 -65 12 0 34 11 50 24 34 29 29 45 -49 137 -30 35
-62 78 -71 95 -22 43 -108 82 -147 67z"/>
<path d="M1595 4791 c-48 -29 -85 -68 -100 -105 -8 -18 -35 -54 -60 -80 -69
-72 -58 -126 32 -147 79 -18 136 20 229 155 78 113 78 112 57 146 -29 50 -104
65 -158 31z"/>
<path d="M4335 4780 c-35 -18 -56 -20 -160 -16 -240 8 -240 8 -250 -31 -12
-49 9 -56 172 -61 82 -2 166 -10 188 -17 47 -15 232 -13 263 4 20 11 42 59 42
92 0 27 -26 36 -125 43 -77 4 -96 2 -130 -14z"/>
<path d="M802 4698 c-19 -19 -15 -137 6 -178 22 -46 80 -64 112 -35 27 24 27
91 -1 154 -17 40 -26 50 -58 60 -47 14 -44 14 -59 -1z"/>
<path d="M4488 4498 c-9 -7 -18 -33 -21 -58 -6 -45 9 -130 23 -130 4 0 12 -17
18 -38 6 -20 26 -62 44 -92 19 -30 39 -74 46 -97 10 -32 19 -44 38 -49 29 -7
82 2 101 17 26 23 15 111 -34 261 -56 172 -75 198 -150 198 -27 0 -56 -6 -65
-12z"/>
<path d="M4021 4439 c-19 -21 -29 -44 -72 -167 -32 -92 -25 -198 15 -224 22
-15 86 -8 105 11 10 10 26 53 35 97 10 44 23 99 30 124 21 71 16 138 -13 161
-31 25 -75 24 -100 -2z"/>
<path d="M2625 4100 c-16 -4 -50 -8 -74 -9 -63 -1 -106 -38 -144 -120 -16 -36
-35 -73 -42 -81 -27 -34 -56 -101 -91 -213 -42 -135 -66 -166 -169 -219 -59
-30 -60 -30 -126 -18 -67 13 -155 8 -172 -9 -16 -16 3 -31 36 -31 18 -1 61 -7
97 -15 42 -9 91 -12 139 -8 66 5 78 10 122 45 65 51 93 97 136 225 19 59 52
134 72 167 20 34 47 83 61 110 20 38 35 52 70 68 25 11 64 30 87 41 23 12 45
18 49 14 7 -7 -7 -58 -53 -198 -42 -127 -21 -122 26 6 44 117 83 199 102 210
16 10 10 21 -16 33 -28 13 -64 14 -110 2z"/>
<path d="M3240 3853 c-231 -14 -293 -23 -343 -48 -57 -30 -188 -129 -230 -173
-39 -41 -34 -76 11 -80 27 -3 43 5 90 46 68 58 141 108 177 122 79 30 375 62
375 41 0 -17 -23 -61 -32 -61 -4 0 -8 -5 -8 -12 0 -6 -27 -36 -61 -66 -33 -30
-74 -78 -90 -107 -39 -68 -88 -125 -141 -160 -23 -16 -74 -55 -111 -87 -38
-32 -74 -58 -81 -58 -16 0 -46 -32 -46 -48 0 -26 50 -10 101 32 30 24 89 61
131 81 86 40 118 73 154 152 17 39 46 75 103 129 83 78 163 181 194 248 9 21
16 40 14 42 -6 6 -149 11 -207 7z"/>
<path d="M1643 3433 c-29 -2 -53 -7 -53 -11 0 -14 16 -28 44 -40 17 -7 48 -28
70 -45 25 -20 38 -26 34 -15 -4 9 -1 22 8 28 22 19 17 44 -16 68 -16 12 -30
21 -32 20 -2 -1 -27 -3 -55 -5z"/>
<path d="M1805 3351 c-6 -11 9 -23 19 -14 9 9 7 23 -3 23 -6 0 -12 -4 -16 -9z"/>
<path d="M1850 3181 c0 -5 14 -20 30 -33 17 -13 63 -54 102 -91 39 -38 92 -79
118 -92 57 -29 194 -65 247 -65 21 0 76 -7 123 -15 114 -20 120 -20 120 9 0
23 -9 29 -75 51 -11 3 -74 12 -140 20 -211 25 -264 43 -316 109 -11 14 -53 45
-95 70 -71 44 -114 57 -114 37z"/>
<path d="M1423 2925 c-32 -22 -43 -69 -39 -164 2 -76 5 -85 27 -97 32 -18 77
-17 96 1 14 14 29 48 70 159 7 22 12 45 9 52 -5 13 -54 38 -91 47 -11 3 -27 8
-35 11 -8 3 -25 -1 -37 -9z"/>
<path d="M3172 2925 c-24 -17 -62 -84 -62 -109 0 -17 -53 -13 -110 9 -44 17
-129 45 -155 51 -24 6 -71 -27 -62 -43 4 -6 53 -25 109 -42 232 -72 226 -71
268 -41 59 42 100 182 55 188 -11 1 -30 -5 -43 -13z"/>
<path d="M3843 2893 c-7 -2 -22 -24 -34 -49 -13 -24 -26 -44 -31 -44 -4 0 -8
-8 -8 -18 0 -10 -4 -22 -8 -27 -5 -6 -17 -45 -27 -87 -12 -54 -25 -85 -43
-103 -25 -25 -30 -26 -98 -20 -60 6 -79 4 -118 -13 -48 -22 -55 -36 -35 -75
17 -33 51 -57 80 -57 49 0 88 -12 94 -29 4 -9 9 -33 11 -53 4 -30 0 -43 -20
-65 l-25 -27 -95 13 c-100 13 -110 12 -126 -18 -7 -14 -5 -24 10 -41 11 -12
17 -26 15 -31 -7 -11 13 -22 60 -30 108 -21 128 -32 118 -69 -5 -19 -29 -26
-73 -22 -62 6 -113 3 -123 -7 -6 -6 -26 -11 -45 -11 -54 0 -122 -21 -133 -41
-15 -28 5 -56 48 -68 31 -9 40 -8 56 7 28 25 193 25 212 -1 13 -19 6 -76 -13
-100 -5 -7 -12 -23 -15 -37 -4 -14 -19 -40 -35 -59 l-28 -34 -125 17 c-68 9
-137 21 -154 26 -46 13 -168 -1 -181 -21 -3 -5 -2 -24 1 -42 l7 -34 86 -6 c52
-3 92 -1 99 5 7 6 30 7 55 3 24 -4 69 -7 100 -7 32 1 60 -3 63 -7 5 -9 -68
-156 -91 -182 -8 -8 -14 -19 -14 -23 0 -3 -25 -43 -55 -89 -51 -76 -67 -117
-46 -117 5 0 11 -9 14 -20 7 -27 49 -42 84 -29 15 5 40 29 55 52 15 23 43 62
61 87 19 25 45 65 59 90 14 25 35 63 48 85 12 22 31 49 41 61 10 11 19 25 19
32 0 6 4 13 9 17 20 12 99 14 151 4 78 -15 105 -17 283 -24 193 -7 197 -8 341
-149 55 -55 124 -114 153 -132 28 -19 55 -38 58 -44 4 -6 31 -28 61 -51 30
-22 54 -46 54 -53 0 -16 55 -60 88 -70 34 -11 57 1 78 40 l19 36 -25 19 c-14
11 -57 43 -97 72 -39 29 -94 73 -121 100 -28 26 -55 47 -61 47 -6 0 -11 4 -11
9 0 4 -17 20 -37 33 -45 30 -143 125 -143 138 0 11 69 32 81 24 17 -10 177 -4
263 10 83 14 106 25 106 51 0 12 -107 48 -120 40 -5 -3 -55 -8 -112 -10 -199
-10 -259 -14 -287 -20 -24 -5 -39 3 -106 57 -77 63 -196 135 -226 137 -24 1
-52 -46 -45 -75 4 -13 13 -24 21 -24 8 0 15 -3 15 -7 0 -5 14 -16 30 -25 38
-22 40 -48 3 -49 -16 0 -57 -2 -93 -4 -89 -5 -119 -5 -160 -1 -19 2 -54 4 -78
5 -51 1 -51 3 6 121 41 84 72 120 105 121 72 2 182 -3 196 -10 9 -4 27 -14 41
-21 31 -17 121 -32 177 -31 23 1 44 -3 48 -9 3 -5 34 -10 68 -10 34 -1 81 -5
105 -9 64 -13 245 16 261 41 7 11 9 27 6 37 -5 18 -82 56 -160 81 -22 7 -50
17 -62 23 -13 6 -46 7 -80 3 -32 -4 -67 -9 -78 -10 -11 -1 -37 -6 -58 -10 -87
-19 -337 -3 -413 25 -29 11 -56 24 -59 29 -8 13 23 77 40 84 29 11 318 -6 347
-20 15 -8 51 -14 81 -14 45 0 61 5 92 30 21 17 43 30 50 30 24 0 76 70 73 98
-3 22 -10 27 -58 38 -58 14 -53 15 -157 -32 -35 -16 -71 -20 -203 -22 -88 -2
-169 -1 -179 3 -15 5 -19 14 -17 38 5 52 21 71 77 91 64 23 82 26 232 34 116
7 118 7 147 39 31 33 37 66 24 132 -10 48 -33 55 -101 31 -31 -11 -59 -23 -62
-28 -23 -30 -66 -43 -159 -45 l-97 -2 3 30 c2 17 10 46 19 65 8 19 21 50 29
68 8 18 14 37 14 43 0 11 23 68 41 102 13 24 6 33 -48 57 -46 20 -58 22 -80
13z"/>
<path d="M1585 2604 c-34 -8 -156 -17 -279 -21 -218 -6 -218 -6 -242 -32 -39
-42 -28 -63 45 -89 54 -19 72 -21 115 -13 28 5 89 6 135 3 96 -5 289 12 369
34 55 15 56 18 43 78 -5 24 -14 31 -51 42 -52 16 -56 16 -135 -2z"/>
<path d="M1172 2320 c-28 -30 -39 -57 -56 -134 -17 -78 -12 -92 40 -118 75
-39 145 -13 168 62 57 187 57 185 -10 201 -68 15 -121 11 -142 -11z"/>
<path d="M1531 2301 c-19 -12 -31 -130 -19 -184 5 -23 7 -66 3 -94 l-6 -53
-82 0 c-45 0 -97 -4 -115 -10 -19 -5 -113 -12 -210 -15 -264 -8 -376 -16 -389
-27 -26 -21 -11 -37 60 -65 61 -24 86 -28 162 -27 53 0 100 6 114 13 18 10
103 13 358 12 191 0 354 4 380 9 24 6 115 12 201 15 86 2 160 4 165 4 4 1 7
13 7 29 0 22 -9 33 -45 55 -25 15 -66 32 -90 38 -47 12 -247 8 -277 -5 -23
-10 -36 44 -36 147 0 81 -15 122 -50 134 -9 3 -31 11 -49 19 -36 16 -62 18
-82 5z"/>
<path d="M1242 1613 c-30 -6 -52 -41 -79 -127 -54 -166 -72 -312 -80 -626 -2
-96 -4 -185 -5 -198 -1 -42 12 -71 34 -78 13 -4 27 -13 33 -20 5 -7 30 -23 55
-36 41 -21 55 -23 170 -20 105 3 134 0 183 -17 83 -29 153 -37 183 -20 l25 13
-2 175 c-1 97 -7 237 -12 311 -8 113 -7 145 7 205 11 48 15 106 13 185 -2 106
-4 119 -32 170 -29 52 -33 56 -91 71 -39 11 -79 15 -110 11 -52 -6 -189 -5
-239 1 -16 2 -40 2 -53 0z m303 -305 l4 -88 -32 0 c-18 0 -45 -7 -60 -15 -15
-8 -45 -17 -65 -21 -20 -4 -44 -10 -53 -15 -23 -12 -28 -2 -19 34 4 18 18 75
29 129 l22 96 58 -5 c33 -3 66 -1 77 5 26 15 34 -11 39 -120z m3 -242 c2 -2 5
-35 8 -72 3 -38 9 -123 14 -190 7 -91 7 -127 -3 -147 -13 -29 0 -27 -203 -30
-96 -2 -97 0 -91 168 6 159 13 214 31 233 7 7 44 17 82 23 38 5 71 14 73 20 3
10 78 5 89 -5z"/>
<path d="M3880 1493 c-14 -3 -31 -10 -39 -16 -19 -16 -50 -33 -101 -57 -25
-12 -58 -28 -74 -36 -16 -8 -36 -14 -45 -14 -9 0 -27 -7 -39 -16 -29 -20 -31
-79 -3 -94 26 -13 91 -13 91 1 0 11 60 39 86 39 14 0 16 -7 10 -52 -10 -71
-21 -88 -56 -88 -17 0 -69 -7 -117 -15 -49 -8 -104 -16 -123 -19 -74 -9 -140
-28 -140 -41 0 -7 12 -28 27 -45 19 -24 31 -30 47 -25 56 17 292 46 312 38 20
-7 18 -18 -17 -90 -22 -44 -36 -63 -50 -63 -10 0 -26 -12 -36 -26 -9 -15 -36
-35 -60 -45 -23 -10 -62 -36 -86 -59 -24 -22 -47 -40 -51 -40 -4 0 -32 -18
-62 -41 -45 -33 -55 -45 -50 -62 3 -12 6 -35 6 -50 0 -28 0 -28 54 -23 35 3
68 13 92 29 22 14 59 33 84 43 25 9 66 32 91 51 26 18 50 33 54 33 9 0 75 66
75 75 0 4 18 28 41 53 47 54 119 171 119 194 0 8 7 21 15 28 16 13 203 49 290
55 28 2 68 10 90 17 32 10 41 18 43 40 5 42 -50 62 -148 53 -41 -4 -86 -7
-100 -7 -14 0 -29 -3 -35 -8 -5 -4 -34 -10 -63 -13 l-52 -5 4 88 c3 73 7 92
25 111 11 12 21 34 21 49 0 20 -8 29 -40 43 -41 17 -46 18 -90 10z"/>
<path d="M3955 920 c-9 -29 11 -57 56 -80 22 -12 44 -31 49 -44 5 -13 19 -26
32 -30 13 -3 50 -31 83 -61 33 -31 79 -67 103 -81 23 -14 42 -29 42 -33 0 -10
138 -121 150 -121 6 0 20 -5 33 -12 49 -25 58 -28 82 -28 15 0 25 6 25 14 0 7
9 20 19 27 10 8 22 31 26 53 6 37 4 41 -44 86 -28 26 -67 56 -88 65 -20 10
-61 33 -90 51 -28 19 -56 34 -60 34 -4 0 -31 16 -58 36 -28 20 -70 45 -95 56
-25 11 -53 24 -62 29 -10 5 -27 9 -38 9 -11 0 -20 4 -20 8 0 13 -74 42 -108
42 -22 0 -32 -6 -37 -20z"/>
</g>
</svg>
